<?xml version="1.0" encoding="utf-8"?>
<!-- Generator: Adobe Illustrator 23.0.5, SVG Export Plug-In . SVG Version: 6.00 Build 0)  -->
<svg version="1.1" id="Layer_1" xmlns="http://www.w3.org/2000/svg" xmlns:xlink="http://www.w3.org/1999/xlink" x="0px" y="0px"
	 viewBox="0 0 841.89 595.28" style="enable-background:new 0 0 841.89 595.28;" xml:space="preserve">
<style type="text/css">
	.st0{fill:url(#SVGID_1_);}
	.st1{fill:#687A8F;}
	.st2{fill:#EE9652;}
	.st3{fill:none;stroke:#687A8F;stroke-miterlimit:10;}
</style>
<radialGradient id="SVGID_1_" cx="400.7404" cy="1017.5007" r="364.9617" gradientUnits="userSpaceOnUse">
	<stop  offset="0" style="stop-color:#F2F2F3"/>
	<stop  offset="0.4665" style="stop-color:#F0F0F1"/>
	<stop  offset="0.7396" style="stop-color:#E7E8E9"/>
	<stop  offset="0.9626" style="stop-color:#D9DADC"/>
	<stop  offset="1" style="stop-color:#D6D7D9"/>
</radialGradient>
<rect x="-20.2" y="718.84" class="st0" width="841.89" height="597.33"/>
<g>
	<g>
		<path class="st1" d="M104.64,368.65c0-0.99-0.27-1.26-1.12-1.31l-1.57-0.09v-3.73h8v19.46c3.19-0.32,5.89-2.02,6.83-4.94
			c0.36-1.08-0.09-1.48-0.72-1.48l-1.71-0.09v-3.5h9.3v3.64l-2.16,0.09c-0.41,3.1-1.62,5.39-3.96,7.23l4.4,7.91l2.74,0.13v3.6h-6.56
			l-5.12-9.35c-0.95,0.27-2.02,0.5-3.06,0.63v4.98h0.05l2.56,0.13v3.6h-10.69v-3.41l1.48-0.13c0.85-0.09,1.3-0.36,1.3-1.48V368.65z"
			/>
		<path class="st1" d="M144.88,391.83l2.56,0.13v3.6h-10.69v-3.41l1.48-0.13c0.81-0.09,1.3-0.36,1.3-1.44v-12.49
			c0-0.99-0.27-1.31-1.12-1.31l-1.57-0.09v-3.73h8.04V391.83z M141.74,363.35c1.98,0,3.41,1.48,3.41,3.37
			c0,1.89-1.44,3.28-3.46,3.28c-2.07,0-3.41-1.39-3.41-3.28C138.28,364.83,139.62,363.35,141.74,363.35z"/>
		<path class="st1" d="M167.86,368.2v4.76h5.98l-0.45,3.77h-5.53v11.82c0,2.74,1.08,3.55,2.92,3.55c1.21,0,2.34-0.49,3.06-0.94
			l1.35,3.46c-1.35,0.94-3.6,1.57-5.71,1.57c-7.01,0-6.96-4.31-6.96-7.46v-12h-3.19l0.45-3.28c3.15-0.27,4.22-2.69,5.17-5.25H167.86
			z"/>
		<path class="st1" d="M203.2,390.13l1.93,3.46c-1.75,1.44-4.49,2.61-7.82,2.61c-6.61,0-10.52-4.18-10.52-11.64
			c0-9.12,5.62-12.26,10.69-12.26c2.7,0,4.85,0.67,7.01,1.84v5.84l-4.13,0.32v-2.16c0-0.85-0.13-1.25-0.94-1.53
			c-0.54-0.18-1.08-0.27-1.75-0.27c-3.6,0-5.44,2.7-5.44,7.68c0,4.9,1.8,8.05,5.8,8.05C199.78,392.06,201.36,391.48,203.2,390.13z"
			/>
		<path class="st1" d="M220.61,368.65c0-0.99-0.27-1.26-1.12-1.31l-1.57-0.09v-3.73h8v12.09c1.35-1.93,3.59-3.33,6.56-3.33
			c4.49,0,7.15,2.52,7.15,7.82v11.73l2.56,0.13v3.6h-10.69v-3.41l1.48-0.13c0.85-0.09,1.3-0.36,1.3-1.48v-9.26
			c0-2.74-0.63-4.85-3.51-4.85c-3.15,0-4.81,2.2-4.81,4.54v10.87l2.56,0.13v3.6h-10.69v-3.41l1.48-0.13c0.85-0.09,1.3-0.36,1.3-1.48
			V368.65z"/>
		<path class="st1" d="M273.35,378.53c0,6.92-7.51,8.09-12.81,8.13c0.18,2.92,1.71,5.3,5.53,5.3c2.65,0,4.58-1.21,5.66-1.97
			l1.71,3.64c-0.72,0.63-3.68,2.52-7.91,2.52c-7.64,0-10.6-4.67-10.6-11.37c0-6.65,3.73-12.49,11.1-12.49
			C270.42,372.29,273.35,374.54,273.35,378.53z M265.71,376.11c-3.59,0-5.21,3.46-5.35,6.79c3.33-0.05,8.04-0.81,8.04-4.27
			C268.4,376.96,267.33,376.11,265.71,376.11z"/>
		<path class="st1" d="M286.13,372.96h7.59v2.92c1.57-2.25,4.31-3.6,7.28-3.6c4.49,0,7.15,2.52,7.15,7.82v11.73l2.56,0.13v3.6
			h-10.69v-3.41l1.48-0.13c0.85-0.09,1.3-0.36,1.3-1.48v-9.26c0-2.96-0.63-4.85-3.68-4.85c-2.97,0-4.63,2.2-4.63,4.54v10.87
			l2.56,0.13v3.6h-10.69v-3.41l1.48-0.13c0.85-0.09,1.3-0.36,1.3-1.48v-12.45c0-0.99-0.31-1.35-1.12-1.39l-1.89-0.13V372.96z"/>
		<path class="st1" d="M356.5,362h4.67v37.52h-4.67V362z"/>
		<path class="st1" d="M412.78,395.57h-7.28v-2.92c-1.57,2.25-4.31,3.51-7.27,3.51c-4.5,0-6.97-2.47-6.97-7.77V378
			c0-0.94-0.36-1.21-1.12-1.26l-1.44-0.09v-3.68h7.91v14.24c0,2.74,0.45,4.81,3.33,4.81c3.15,0,4.81-2.11,4.81-4.45v-9.48
			c0-0.99-0.27-1.31-1.12-1.35l-1.44-0.09v-3.68h7.91v17.61c0,0.99,0.27,1.22,1.12,1.31l1.57,0.13V395.57z"/>
		<path class="st1" d="M425.17,372.96h7.6v2.92c1.57-2.25,4.31-3.6,7.28-3.6c4.49,0,7.14,2.52,7.14,7.82v11.73l2.56,0.13v3.6h-10.69
			v-3.41l1.48-0.13c0.85-0.09,1.3-0.36,1.3-1.48v-9.26c0-2.96-0.63-4.85-3.68-4.85c-2.96,0-4.63,2.2-4.63,4.54v10.87l2.56,0.13v3.6
			H425.4v-3.41l1.48-0.13c0.85-0.09,1.3-0.36,1.3-1.48v-12.45c0-0.99-0.32-1.35-1.12-1.39l-1.89-0.13V372.96z"/>
		<path class="st1" d="M470.44,391.83l2.56,0.13v3.6h-10.69v-3.41l1.48-0.13c0.81-0.09,1.31-0.36,1.31-1.44v-12.49
			c0-0.99-0.27-1.31-1.12-1.31l-1.57-0.09v-3.73h8.04V391.83z M467.3,363.35c1.97,0,3.41,1.48,3.41,3.37c0,1.89-1.44,3.28-3.46,3.28
			c-2.07,0-3.41-1.39-3.41-3.28C463.84,364.83,465.19,363.35,467.3,363.35z"/>
		<path class="st1" d="M493.42,368.2v4.76h5.98l-0.45,3.77h-5.53v11.82c0,2.74,1.08,3.55,2.92,3.55c1.21,0,2.34-0.49,3.06-0.94
			l1.35,3.46c-1.35,0.94-3.6,1.57-5.7,1.57c-7.01,0-6.97-4.31-6.97-7.46v-12h-3.19l0.45-3.28c3.15-0.27,4.23-2.69,5.17-5.25H493.42z
			"/>
		<path class="st1" d="M521.53,375.97c-1.93,0-3.37,0.9-3.37,2.69c0,2.07,2.16,2.7,4.27,3.28c3.5,0.99,7.37,2.11,7.37,7.01
			c0,4.67-3.87,7.19-8.67,7.19c-2.83,0-6.38-0.45-8.26-1.39v-6.24l4.04-0.32v2.16c0,0.85,0.22,1.21,1.03,1.53
			c0.85,0.32,1.89,0.45,2.97,0.45c2.24,0,3.55-0.85,3.55-2.74c0-2.16-1.98-2.56-4.4-3.19c-3.33-0.85-6.96-1.98-6.96-6.96
			c0-4.67,3.95-7.15,8.67-7.15c3.05,0,5.7,0.94,7.46,1.8v5.39l-4.04,0.32v-1.89c0-0.85-0.23-1.21-1.04-1.53
			C523.28,376.06,522.61,375.97,521.53,375.97z"/>
		<path class="st1" d="M563.76,362h4.67v37.52h-4.67V362z"/>
		<path class="st1" d="M604.19,372.83v-4.54c0-0.76-0.4-1.03-1.17-1.08l-1.93-0.13v-3.55h8.36v27.32c0.04,0.77,0.36,1.04,1.12,1.04
			l1.58,0.09v3.6h-7.28v-2.65l-0.13-0.04c-1.39,2.24-3.64,3.28-6.11,3.28c-7.01,0-9.08-5.39-9.08-11.01
			c0-7.68,3.95-12.85,10.96-12.85C602.08,372.29,603.15,372.51,604.19,372.83z M604.19,376.92c-0.81-0.36-2.02-0.72-3.41-0.72
			c-4.27,0-5.7,4.05-5.7,8.45c0,4.09,0.98,7.55,4.85,7.55c2.52,0,4.27-1.66,4.27-3.64V376.92z"/>
		<path class="st1" d="M635.36,372.29c3.33,0,10.02,1.03,10.02,11.37c0,8.63-4.81,12.58-10.74,12.58c-6.02,0-9.97-3.87-9.97-11.99
			C624.66,374.9,630.73,372.29,635.36,372.29z M639.89,384.38c0-5.04-1.21-8.13-4.81-8.13c-3.55,0-4.99,3.06-4.99,7.37
			c0,4.18,0.59,8.67,4.9,8.67C638.5,392.29,639.89,389.05,639.89,384.38z"/>
		<path class="st1" d="M668.99,372.29c3.33,0,10.02,1.03,10.02,11.37c0,8.63-4.81,12.58-10.74,12.58c-6.02,0-9.97-3.87-9.97-11.99
			C658.3,374.9,664.37,372.29,668.99,372.29z M673.53,384.38c0-5.04-1.21-8.13-4.81-8.13c-3.55,0-4.99,3.06-4.99,7.37
			c0,4.18,0.59,8.67,4.9,8.67C672.14,392.29,673.53,389.05,673.53,384.38z"/>
		<path class="st1" d="M694.72,378.09c0-0.99-0.27-1.31-1.12-1.35l-1.89-0.13v-3.64h7.59v3.37c1.04-2.24,3.41-4.04,6.38-4.04
			c1.48,0,2.83,0.27,4.31,0.99v6.69l-4.18,0.32v-2.07c0-0.54-0.09-0.94-0.45-1.12c-0.4-0.18-0.72-0.22-1.21-0.22
			c-2.42,0-4.09,1.93-4.09,4.53v10.42l3.91,0.18v3.55h-12.04v-3.41l1.48-0.13c0.85-0.09,1.31-0.36,1.31-1.48V378.09z"/>
		<path class="st1" d="M731.77,375.97c-1.93,0-3.37,0.9-3.37,2.69c0,2.07,2.16,2.7,4.27,3.28c3.5,0.99,7.37,2.11,7.37,7.01
			c0,4.67-3.87,7.19-8.67,7.19c-2.83,0-6.38-0.45-8.26-1.39v-6.24l4.04-0.32v2.16c0,0.85,0.22,1.21,1.03,1.53
			c0.85,0.32,1.89,0.45,2.97,0.45c2.24,0,3.55-0.85,3.55-2.74c0-2.16-1.98-2.56-4.4-3.19c-3.33-0.85-6.96-1.98-6.96-6.96
			c0-4.67,3.95-7.15,8.67-7.15c3.05,0,5.7,0.94,7.46,1.8v5.39l-4.04,0.32v-1.89c0-0.85-0.23-1.21-1.04-1.53
			C733.52,376.06,732.85,375.97,731.77,375.97z"/>
		<path class="st1" d="M327.81,376.31c-1.93,0-3.37,0.9-3.37,2.69c0,2.07,2.16,2.7,4.27,3.28c3.5,0.99,7.37,2.11,7.37,7.01
			c0,4.67-3.87,7.19-8.67,7.19c-2.83,0-6.38-0.45-8.26-1.39v-6.24l4.04-0.32v2.16c0,0.85,0.22,1.21,1.03,1.53
			c0.85,0.32,1.89,0.45,2.97,0.45c2.24,0,3.55-0.85,3.55-2.74c0-2.16-1.98-2.56-4.4-3.19c-3.33-0.85-6.96-1.98-6.96-6.96
			c0-4.67,3.95-7.15,8.67-7.15c3.05,0,5.7,0.94,7.46,1.8v5.39l-4.04,0.32v-1.89c0-0.85-0.23-1.21-1.04-1.53
			C329.56,376.4,328.88,376.31,327.81,376.31z"/>
	</g>
	<g>
		<g>
			<path class="st2" d="M205.97,243.47h-86.44c-2.89,0-5.23-2.35-5.23-5.23v-18.67c0-2.89,2.35-5.23,5.23-5.23h86.44
				c2.89,0,5.23,2.35,5.23,5.23v18.67C211.21,241.12,208.86,243.47,205.97,243.47z M120.92,236.85h83.67v-15.91h-83.67V236.85z"/>
		</g>
		<g>
			<path class="st2" d="M205.97,285.04h-86.44c-2.89,0-5.23-2.35-5.23-5.24v-18.67c0-2.89,2.35-5.23,5.23-5.23h86.44
				c2.89,0,5.23,2.35,5.23,5.23v18.67C211.21,282.69,208.86,285.04,205.97,285.04z M120.92,278.42h83.67v-15.91h-83.67V278.42z"/>
		</g>
		<g>
			<path class="st2" d="M205.97,326.61h-86.44c-2.89,0-5.23-2.35-5.23-5.24v-18.67c0-2.89,2.35-5.24,5.23-5.24h86.44
				c2.89,0,5.23,2.35,5.23,5.24v18.67C211.21,324.26,208.86,326.61,205.97,326.61z M120.92,319.99h83.67v-15.91h-83.67V319.99z"/>
		</g>
		<rect x="99.1" y="195.76" class="st3" width="131.32" height="147.47"/>
		<rect x="230.42" y="195.76" class="st3" width="512.36" height="147.47"/>
		<path class="st1" d="M267.03,308.04c-5.57,0-7.82-1.61-8.36-2.04c-1.39-1.07-3.11-3.32-3.11-7.5v-53.47c0-2.79,0.11-6,2.57-8.79
			c1.07-1.18,3.53-3.22,8.04-3.22h29.36c10.39,0,17.47,3.96,21.97,8.89c7.29,8.04,7.61,18.75,7.61,27.75c0,8.14-0.54,21-6.64,29.15
			c-3,3.96-9.21,9.21-21,9.21H267.03z M269.71,291.65c0,1.5-0.11,2.89,0.96,4.07c0.96,1.07,2.36,1.07,3.64,1.07h16.29
			c7.82,0,12.97-1.72,16.18-6.97c1.82-2.89,3.75-8.47,3.75-21.22c0-6.43-0.54-13.93-5.25-18.86c-4.29-4.5-11.04-5.47-16.07-5.47
			h-14.68c-0.86,0-2.36,0-3.32,0.75c-0.86,0.64-1.5,2.14-1.5,3.75V291.65z"/>
		<path class="st1" d="M355.74,308.04c-5.79,0-12.65-0.54-17.36-7.18c-3.75-5.36-4.07-13.18-4.07-20.68
			c0-10.61,0.54-18.43,6.75-23.79c6.21-5.36,15.86-5.36,21.21-5.36c6.64,0,13.5,0.32,18.75,3.64c6.64,4.18,8.04,11.25,8.04,18.43
			c0,2.89-0.32,6.22-2.68,8.57c-1.71,1.71-3.86,2.14-6.11,2.14h-33c0,2.46,0.32,6.11,0.75,7.82c1.61,6.11,6.86,6.75,11.47,6.75
			h27.75v9.64H355.74z M373.31,274.18c2.46,0,2.79-1.82,2.79-3.32c0-3.54-1.82-6.21-3.64-7.61c-3.11-2.36-7.18-2.57-10.71-2.57
			c-3.32,0-8.46-0.11-11.89,3.75c-2.57,2.89-2.46,6-2.57,9.75H373.31z"/>
		<path class="st1" d="M402.77,308.04V260.9h-7.93v-9.54h7.93c0.11-3.75,1.07-10.39,5.89-14.36c5.36-4.39,15.75-4.93,22.18-4.71
			v9.21c-6.43,0-10.07,0.21-12.32,1.71c-1.6,1.07-3.32,3.43-3.21,8.04h15.53v9.64h-15.53v47.15H402.77z"/>
		<path class="st1" d="M438.12,243v-9.97h12.53V243H438.12z M438.12,251.25h12.53v56.79h-12.53V251.25z"/>
		<path class="st1" d="M461.37,259.93c0-1.71,0.11-4.29,1.82-6.11c2.36-2.68,6.22-2.57,8.68-2.57h20.04
			c5.89,0,11.36,0.54,15.86,4.61c3,2.68,5.57,6.96,5.57,14.79v37.4H500.8V274.4c0-3.75-0.32-7.39-2.35-10.07
			c-1.82-2.36-4.4-3.43-9-3.43h-12.75c-0.75,0-1.5,0-2.14,0.64c-0.65,0.75-0.65,1.61-0.65,2.36v44.15h-12.53V259.93z"/>
		<path class="st1" d="M524.04,243v-9.97h12.53V243H524.04z M524.04,251.25h12.53v56.79h-12.53V251.25z"/>
		<path class="st1" d="M571.72,308.04c-7.61,0-11.68-1.29-15.22-4.18c-3.64-3-5.68-7.18-5.68-14.36V260.9H543v-9.64h7.82v-18.22
			h12.53v18.22h15.86v9.64h-15.86v22.82c0,3.86-0.32,9.21,3.32,12.22c2.79,2.36,7.5,2.46,9.75,2.46h3.11v9.64H571.72z"/>
		<path class="st1" d="M585.97,243v-9.97h12.53V243H585.97z M585.97,251.25h12.53v56.79h-12.53V251.25z"/>
		<path class="st1" d="M631.29,293.37c0.32,0.86,0.97,2.25,1.5,2.25c0.54,0,1.18-1.39,1.5-2.25l15.86-42.11h12.96l-21.64,52.4
			c-1.93,4.82-5.57,5.04-8.68,5.04c-2.25,0-6.65,0.11-8.79-5.04l-21.64-52.4h12.96L631.29,293.37z"/>
		<path class="st1" d="M686.89,308.04c-5.79,0-12.64-0.54-17.36-7.18c-3.75-5.36-4.07-13.18-4.07-20.68
			c0-10.61,0.54-18.43,6.75-23.79c6.21-5.36,15.86-5.36,21.21-5.36c6.64,0,13.5,0.32,18.75,3.64c6.65,4.18,8.04,11.25,8.04,18.43
			c0,2.89-0.32,6.22-2.68,8.57c-1.71,1.71-3.86,2.14-6.11,2.14h-33.01c0,2.46,0.32,6.11,0.75,7.82c1.61,6.11,6.86,6.75,11.47,6.75
			h27.75v9.64H686.89z M704.46,274.18c2.46,0,2.79-1.82,2.79-3.32c0-3.54-1.82-6.21-3.64-7.61c-3.11-2.36-7.18-2.57-10.71-2.57
			c-3.32,0-8.47-0.11-11.89,3.75c-2.57,2.89-2.46,6-2.57,9.75H704.46z"/>
		<rect x="524.04" y="233.04" class="st2" width="12.53" height="9.97"/>
		<rect x="585.97" y="233.04" class="st2" width="12.53" height="9.97"/>
		<rect x="438.12" y="233.04" class="st2" width="12.53" height="9.97"/>
	</g>
</g>
</svg>
